<svg width="552" height="29" viewBox="0 0 552 29" fill="none" xmlns="http://www.w3.org/2000/svg">
<path d="M0.822816 2.01582C0.27927 2.11368 -0.0820337 2.63364 0.0158222 3.17718L1.61048 12.0348C1.70833 12.5783 2.22829 12.9396 2.77184 12.8418C3.31538 12.7439 3.67669 12.224 3.57883 11.6804L2.16136 3.80699L10.0348 2.38953C10.5783 2.29167 10.9396 1.77171 10.8418 1.22816C10.7439 0.684617 10.224 0.323314 9.68042 0.421169L0.822816 2.01582ZM551.707 21.7071C552.098 21.3165 552.098 20.6834 551.707 20.2928L545.343 13.9289C544.953 13.5384 544.319 13.5384 543.929 13.9289C543.538 14.3194 543.538 14.9526 543.929 15.3431L549.586 21L543.929 26.6568C543.538 27.0473 543.538 27.6805 543.929 28.071C544.319 28.4615 544.953 28.4615 545.343 28.071L551.707 21.7071ZM336.467 20.106L335.896 20.9272L336.467 20.106ZM339.32 20.9999L339.32 21.9999L339.32 20.9999ZM308.996 4.98255L309.567 5.80376L308.996 4.98255ZM314.702 4.98256L314.132 5.80376L314.702 4.98256ZM283.092 19.0174L283.663 18.1962L283.092 19.0174ZM288.798 19.0174L289.369 19.8386L288.798 19.0174ZM257.188 4.98255L256.617 4.16135L257.188 4.98255ZM262.894 4.98255L262.324 5.80376L262.894 4.98255ZM231.284 19.0174L230.713 19.8386L231.284 19.0174ZM236.99 19.0174L236.419 18.1962L236.99 19.0174ZM205.38 4.98256L204.809 4.16135L205.38 4.98256ZM179.476 19.0174L178.905 19.8386L179.476 19.0174ZM185.182 19.0174L185.753 19.8386L185.182 19.0174ZM153.571 4.98256L153.001 4.16135L153.571 4.98256ZM159.278 4.98256L159.848 4.16135L159.278 4.98256ZM133.374 19.0174L132.803 18.1962L133.374 19.0174ZM101.763 4.98257L102.334 5.80377L101.763 4.98257ZM107.47 4.98256L106.899 5.80377L107.47 4.98256ZM81.5655 19.0174L82.1361 19.8386L81.5655 19.0174ZM49.9551 4.98257L49.3844 4.16136L49.9551 4.98257ZM29.7573 19.0174L29.1866 18.1962L29.7573 19.0174ZM0.429369 3.82121L23.4803 19.8386L24.6216 18.1962L1.57063 2.17879L0.429369 3.82121ZM30.3279 19.8386L50.5257 5.80377L49.3844 4.16136L29.1866 18.1962L30.3279 19.8386ZM55.0907 5.80377L75.2885 19.8386L76.4298 18.1962L56.232 4.16136L55.0907 5.80377ZM82.1361 19.8386L102.334 5.80377L101.193 4.16136L80.9948 18.1962L82.1361 19.8386ZM106.899 5.80377L127.097 19.8386L128.238 18.1962L108.04 4.16136L106.899 5.80377ZM133.944 19.8386L154.142 5.80377L153.001 4.16135L132.803 18.1962L133.944 19.8386ZM158.707 5.80377L178.905 19.8386L180.046 18.1962L159.848 4.16135L158.707 5.80377ZM185.753 19.8386L205.95 5.80377L204.809 4.16135L184.611 18.1962L185.753 19.8386ZM210.515 5.80377L230.713 19.8386L231.854 18.1962L211.657 4.16135L210.515 5.80377ZM237.561 19.8386L257.759 5.80376L256.617 4.16135L236.419 18.1962L237.561 19.8386ZM262.324 5.80376L282.521 19.8386L283.663 18.1962L263.465 4.16134L262.324 5.80376ZM289.369 19.8386L309.567 5.80376L308.425 4.16135L288.228 18.1962L289.369 19.8386ZM314.132 5.80376L335.896 20.9272L337.037 19.2848L315.273 4.16135L314.132 5.80376ZM339.32 21.9999L551 22L551 20L339.32 19.9999L339.32 21.9999ZM335.896 20.9272C336.901 21.6256 338.096 21.9999 339.32 21.9999L339.32 19.9999C338.504 19.9999 337.708 19.7504 337.037 19.2848L335.896 20.9272ZM309.567 5.80376C310.939 4.85019 312.759 4.85019 314.132 5.80376L315.273 4.16135C313.215 2.731 310.484 2.731 308.425 4.16135L309.567 5.80376ZM282.521 19.8386C284.58 21.2689 287.311 21.2689 289.369 19.8386L288.228 18.1962C286.855 19.1497 285.035 19.1497 283.663 18.1962L282.521 19.8386ZM257.759 5.80376C259.131 4.8502 260.951 4.85019 262.324 5.80376L263.465 4.16134C261.406 2.731 258.676 2.731 256.617 4.16135L257.759 5.80376ZM230.713 19.8386C232.772 21.2689 235.502 21.2689 237.561 19.8386L236.419 18.1962C235.047 19.1497 233.227 19.1497 231.854 18.1962L230.713 19.8386ZM205.95 5.80377C207.323 4.8502 209.143 4.8502 210.515 5.80377L211.657 4.16135C209.598 2.731 206.868 2.73101 204.809 4.16135L205.95 5.80377ZM178.905 19.8386C180.963 21.2689 183.694 21.2689 185.753 19.8386L184.611 18.1962C183.239 19.1497 181.419 19.1497 180.046 18.1962L178.905 19.8386ZM154.142 5.80377C155.514 4.8502 157.335 4.8502 158.707 5.80377L159.848 4.16135C157.79 2.731 155.059 2.73101 153.001 4.16135L154.142 5.80377ZM127.097 19.8386C129.155 21.2689 131.886 21.2689 133.944 19.8386L132.803 18.1962C131.431 19.1497 129.61 19.1497 128.238 18.1962L127.097 19.8386ZM102.334 5.80377C103.706 4.85021 105.527 4.85021 106.899 5.80377L108.04 4.16136C105.982 2.73101 103.251 2.73101 101.193 4.16136L102.334 5.80377ZM75.2885 19.8386C77.347 21.2689 80.0777 21.2689 82.1361 19.8386L80.9948 18.1962C79.6225 19.1497 77.8021 19.1497 76.4298 18.1962L75.2885 19.8386ZM50.5257 5.80377C51.898 4.85021 53.7184 4.85021 55.0907 5.80377L56.232 4.16136C54.1736 2.73101 51.4429 2.73101 49.3844 4.16136L50.5257 5.80377ZM23.4803 19.8386C25.5388 21.2689 28.2695 21.2689 30.3279 19.8386L29.1866 18.1962C27.8143 19.1498 25.9939 19.1498 24.6216 18.1962L23.4803 19.8386Z" fill="#D4DAD9"/>
</svg>
